<svg xmlns="http://www.w3.org/2000/svg" width="51" height="74" fill="none">
<path fill="#fff" d="M0 48V.8h2.4V48H0Zm4.8 0V.8H12V48H4.8Zm9.6 0V.8h4.8V48h-4.8Zm-7.44 6.96h1.68l4.56 9.12 4.64-9.12h1.6v18.56h-2v-14l-4 7.52h-.8L8.88 59.6v13.92H6.96V54.96ZM26.406 48V.8h7.2V48h-7.2Zm9.6 0V.8h7.2V48h-7.2Zm9.6 0V.8h4.8V48h-4.8Zm-11.68 6.96h5.92c1.974 0 3.44.507 4.4 1.52 1.014.96 1.52 2.213 1.52 3.76 0 1.493-.48 2.72-1.44 3.68s-2.4 1.44-4.32 1.44h-3.92v8.16h-2.16V54.96Zm5.84 8.56c1.334 0 2.294-.293 2.88-.88.64-.533.96-1.307.96-2.32s-.32-1.813-.96-2.4c-.64-.64-1.573-.96-2.8-.96h-3.76v6.56h3.68Z"/>
</svg>